# xmcd
#
# Track frame offsets: 
#        150
#        19489
#        37656
#        58035
#        78006
#        91855
#        112549
#        131634
#        149096
#        170184
#
# Disc length: 2554 seconds
#
# Revision: 0
# Processed by: cddbd v1.5.2PL0 Copyright (c) Steve Scherf et al.
# Submitted via: ExactAudioCopy v1.1
#
DISCID=7c09f80a
DTITLE=Ruthie Foster - Joy Comes Back
DYEAR=2017
DGENRE=Blues
TTITLE0=What Are You Listening To
TTITLE1=Working Woman 
TTITLE2=Joy Comes Back
TTITLE3=Open Sky
TTITLE4=Good Sailor
TTITLE5=War Pigs
TTITLE6=Loving You is Sweeter Than Ever 
TTITLE7=Richland Woman Blues
TTITLE8=Abraham
TTITLE9=Forgiven
EXTD=
EXTT0=
EXTT1=
EXTT2=
EXTT3=
EXTT4=
EXTT5=
EXTT6=
EXTT7=
EXTT8=
EXTT9=
PLAYORDER=
